<?xml version="1.0" standalone="no"?>
<!DOCTYPE svg PUBLIC "-//W3C//DTD SVG 20010904//EN"
 "http://www.w3.org/TR/2001/REC-SVG-20010904/DTD/svg10.dtd">
<svg version="1.0" xmlns="http://www.w3.org/2000/svg"
 width="700.000000pt" height="700.000000pt" viewBox="0 0 700.000000 700.000000"
 preserveAspectRatio="xMidYMid meet">
<metadata>
Created by potrace 1.14, written by Peter Selinger 2001-2017
</metadata>
<g transform="translate(0.000000,700.000000) scale(0.100000,-0.100000)"
fill="#000000" stroke="none">
<path d="M1775 6989 c-4 -5 40 -54 97 -109 57 -56 1058 -1055 2225 -2220 1167
-1165 2132 -2124 2143 -2130 17 -9 24 -6 47 18 226 235 444 581 556 883 47
124 76 227 121 421 l37 158 -4 387 -4 388 -50 195 c-70 268 -115 391 -216 588
-167 326 -358 565 -667 832 -19 16 -69 54 -110 84 -302 218 -654 375 -1017
452 -258 55 -293 56 -1780 60 -826 1 -1375 -1 -1378 -7z"/>
<path d="M3 3493 l2 -3488 875 0 875 0 1 848 c1 772 3 850 18 865 15 15 94 17
879 17 l862 0 868 -867 868 -868 875 0 874 0 0 870 0 870 -868 0 -868 0 -510
505 c-280 278 -522 520 -539 537 -313 321 -4193 4198 -4201 4198 -9 0 -12
-788 -11 -3487z"/>
</g>
</svg>
